<svg width="50" height="50" viewBox="0 0 50 50" fill="none" xmlns="http://www.w3.org/2000/svg">
<circle cx="25" cy="25" r="25" fill="#95959B"/>
<path d="M19.8736 20.016C19.9856 18.544 20.5536 17.392 21.5776 16.56C22.6016 15.728 23.9296 15.312 25.5616 15.312C26.6496 15.312 27.5856 15.512 28.3696 15.912C29.1696 16.296 29.7696 16.824 30.1696 17.496C30.5856 18.168 30.7936 18.928 30.7936 19.776C30.7936 20.768 30.5056 21.624 29.9296 22.344C29.3696 23.064 28.6336 23.528 27.7216 23.736V23.856C28.7616 24.112 29.5856 24.616 30.1936 25.368C30.8016 26.12 31.1056 27.104 31.1056 28.32C31.1056 29.232 30.8976 30.056 30.4816 30.792C30.0656 31.512 29.4416 32.08 28.6096 32.496C27.7776 32.912 26.7776 33.12 25.6096 33.12C23.9136 33.12 22.5216 32.68 21.4336 31.8C20.3456 30.904 19.7376 29.64 19.6096 28.008H21.7216C21.8336 28.968 22.2256 29.752 22.8976 30.36C23.5696 30.968 24.4656 31.272 25.5856 31.272C26.7056 31.272 27.5536 30.984 28.1296 30.408C28.7216 29.816 29.0176 29.056 29.0176 28.128C29.0176 26.928 28.6176 26.064 27.8176 25.536C27.0176 25.008 25.8096 24.744 24.1936 24.744H23.6416V22.92H24.2176C25.6896 22.904 26.8016 22.664 27.5536 22.2C28.3056 21.72 28.6816 20.984 28.6816 19.992C28.6816 19.144 28.4016 18.464 27.8416 17.952C27.2976 17.44 26.5136 17.184 25.4896 17.184C24.4976 17.184 23.6976 17.44 23.0896 17.952C22.4816 18.464 22.1216 19.152 22.0096 20.016H19.8736Z" fill="white"/>
</svg>
