<svg width="50" height="50" viewBox="0 0 50 50" fill="none" xmlns="http://www.w3.org/2000/svg">
<circle cx="25" cy="25" r="25" fill="#95959B"/>
<path d="M19.3217 31.248C21.3537 29.616 22.9457 28.28 24.0977 27.24C25.2497 26.184 26.2177 25.088 27.0017 23.952C27.8017 22.8 28.2017 21.672 28.2017 20.568C28.2017 19.528 27.9457 18.712 27.4337 18.12C26.9377 17.512 26.1297 17.208 25.0097 17.208C23.9217 17.208 23.0737 17.552 22.4657 18.24C21.8737 18.912 21.5537 19.816 21.5057 20.952H19.3937C19.4577 19.16 20.0017 17.776 21.0257 16.8C22.0497 15.824 23.3697 15.336 24.9857 15.336C26.6337 15.336 27.9377 15.792 28.8977 16.704C29.8737 17.616 30.3617 18.872 30.3617 20.472C30.3617 21.8 29.9617 23.096 29.1617 24.36C28.3777 25.608 27.4817 26.712 26.4737 27.672C25.4657 28.616 24.1777 29.72 22.6097 30.984H30.8657V32.808H19.3217V31.248Z" fill="white"/>
</svg>
