<svg width="50" height="50" viewBox="0 0 50 50" fill="none" xmlns="http://www.w3.org/2000/svg">
<circle cx="25" cy="25" r="25" fill="#0065AD"/>
<path d="M19.8736 20.016C20.0896 17.04 22.3456 15.312 25.5616 15.312C28.9456 15.312 30.7936 17.28 30.7936 19.776C30.7936 21.768 29.5456 23.328 27.7216 23.736V23.856C29.7376 24.336 31.1056 25.824 31.1056 28.32C31.1056 31.008 29.2336 33.12 25.6096 33.12C22.3216 33.12 19.8736 31.368 19.6096 28.008H21.7216C21.9376 29.856 23.2816 31.272 25.5856 31.272C27.9136 31.272 29.0176 29.904 29.0176 28.128C29.0176 25.68 27.3136 24.744 24.1936 24.744H23.6416V22.92H24.2176C27.1216 22.896 28.6816 22.008 28.6816 19.992C28.6816 18.336 27.5776 17.184 25.4896 17.184C23.4496 17.184 22.2256 18.336 22.0096 20.016H19.8736Z" fill="white"/>
</svg>
